<?xml version="1.0" standalone="no"?><!DOCTYPE svg PUBLIC "-//W3C//DTD SVG 1.1//EN" "http://www.w3.org/Graphics/SVG/1.1/DTD/svg11.dtd"><svg xmlns="http://www.w3.org/2000/svg" viewBox="0 0 650 400" version="1.1"><clipPath id="box"><rect x="0" y="0" width="650" height="400" style="fill:none;stroke:none;" /></clipPath><g clip-path="url(#box)"><rect x="0.00" y="0.00" width="650.00" height="400.00" style="fill:#FFFEE5;stroke:none;" /><path d="M0.00 366.00 L650.00 366.00 M0.00 283.00 L650.00 283.00 M0.00 200.00 L650.00 200.00 M0.00 116.00 L650.00 116.00 M0.00 33.00 L650.00 33.00 M20.00 0.00 L20.00 400.00 M121.00 0.00 L121.00 400.00 M223.00 0.00 L223.00 400.00 M325.00 0.00 L325.00 400.00 M426.00 0.00 L426.00 400.00 M528.00 0.00 L528.00 400.00 M629.00 0.00 L629.00 400.00 " style="fill:none;stroke:#D0D0D0;stroke-width:1;" /><path d="M325.00 0.00 L325.00 400.00 " style="fill:none;stroke:#000000;stroke-width:1;" /><path d="M318.50 450.00 L331.50 450.00 M318.50 366.67 L331.50 366.67 M318.50 283.33 L331.50 283.33 M318.50 200.00 L331.50 200.00 M318.50 116.67 L331.50 116.67 M318.50 33.33 L331.50 33.33 " style="fill:none;stroke:#000000;stroke-width:1;" /><path d="M0.00 200.00 L650.00 200.00 " style="fill:none;stroke:#000000;stroke-width:1;" /><path d="M-81.25 193.50 L-81.25 206.50 M20.31 193.50 L20.31 206.50 M121.88 193.50 L121.88 206.50 M223.44 193.50 L223.44 206.50 M325.00 193.50 L325.00 206.50 M426.56 193.50 L426.56 206.50 M528.13 193.50 L528.13 206.50 M629.69 193.50 L629.69 206.50 " style="fill:none;stroke:#000000;stroke-width:1;" /><text x="333.125" y="369.1666666666667" text-anchor="start" style="font:10px Droid Sans,Trebuchet MS,Arial,Helvetica,sans-serif;stroke:none;fill:#000000">-1</text><text x="333.125" y="285.83333333333337" text-anchor="start" style="font:10px Droid Sans,Trebuchet MS,Arial,Helvetica,sans-serif;stroke:none;fill:#000000">-0.5</text><text x="333.125" y="202.5" text-anchor="start" style="font:10px Droid Sans,Trebuchet MS,Arial,Helvetica,sans-serif;stroke:none;fill:#000000">0</text><text x="333.125" y="119.16666666666667" text-anchor="start" style="font:10px Droid Sans,Trebuchet MS,Arial,Helvetica,sans-serif;stroke:none;fill:#000000">0.5</text><text x="333.125" y="35.83333333333333" text-anchor="start" style="font:10px Droid Sans,Trebuchet MS,Arial,Helvetica,sans-serif;stroke:none;fill:#000000">1</text><text x="20.312500000000018" y="216.125" text-anchor="middle" style="font:10px Droid Sans,Trebuchet MS,Arial,Helvetica,sans-serif;stroke:none;fill:#000000">-3</text><text x="121.87500000000001" y="216.125" text-anchor="middle" style="font:10px Droid Sans,Trebuchet MS,Arial,Helvetica,sans-serif;stroke:none;fill:#000000">-2</text><text x="223.4375" y="216.125" text-anchor="middle" style="font:10px Droid Sans,Trebuchet MS,Arial,Helvetica,sans-serif;stroke:none;fill:#000000">-1</text><text x="325" y="216.125" text-anchor="middle" style="font:10px Droid Sans,Trebuchet MS,Arial,Helvetica,sans-serif;stroke:none;fill:#000000">0</text><text x="426.5625" y="216.125" text-anchor="middle" style="font:10px Droid Sans,Trebuchet MS,Arial,Helvetica,sans-serif;stroke:none;fill:#000000">1</text><text x="528.125" y="216.125" text-anchor="middle" style="font:10px Droid Sans,Trebuchet MS,Arial,Helvetica,sans-serif;stroke:none;fill:#000000">2</text><text x="629.6875" y="216.125" text-anchor="middle" style="font:10px Droid Sans,Trebuchet MS,Arial,Helvetica,sans-serif;stroke:none;fill:#000000">3</text><rect x="18.31" y="198.00" width="5.00" height="5.00" style="fill:#000000;stroke:none;" /><rect x="119.88" y="198.00" width="5.00" height="5.00" style="fill:#000000;stroke:none;" /><rect x="221.44" y="198.00" width="5.00" height="5.00" style="fill:#000000;stroke:none;" /><rect x="323.00" y="198.00" width="5.00" height="5.00" style="fill:#000000;stroke:none;" /><rect x="424.56" y="198.00" width="5.00" height="5.00" style="fill:#000000;stroke:none;" /><rect x="526.13" y="198.00" width="5.00" height="5.00" style="fill:#000000;stroke:none;" /><rect x="627.69" y="198.00" width="5.00" height="5.00" style="fill:#000000;stroke:none;" /></g></svg>